<svg xmlns="http://www.w3.org/2000/svg" xmlns:xlink="http://www.w3.org/1999/xlink" xml:space="preserve" version="1.1" style="shape-rendering:geometricPrecision;text-rendering:geometricPrecision;image-rendering:optimizeQuality;" viewBox="0 0 105833.32 132291.65000000002" x="0px" y="0px" fill-rule="evenodd" clip-rule="evenodd"><defs><style type="text/css">
   
    .fil0 {fill:black;fill-rule:nonzero}
   
  </style></defs><g><path class="fil0" d="M57197.9 103896.43c326.28,611.78 -603.91,1107.86 -930.18,496.1 -4740.19,-8856.61 -21630.03,-18221.02 -30747.58,-29974.67 -3438.74,-4433 -6612.48,-8884.32 -9929.83,-13378.6 -2716.83,-3680.7 -3325.49,-4505.33 -3382.73,-9398.65 -36.95,-3159.26 -311.64,-5095.11 -1481.66,-8034.08 -2968.37,-7456.05 4217.85,-9064.29 9104.23,-4275.98 2876.72,2819.03 4167.71,5686.22 4031.91,9699.59 2478.01,1683.95 5897.49,5379.86 7308.22,8045.06 353.16,667.22 637.4,1013.79 829.85,947.91 484.92,-165.99 952.21,-1626.9 1107.17,-2128.1 1063.09,-3438.63 1301.89,-6431.63 404.22,-9944.54 -1438.57,-5629.66 -4618.88,-11583.15 -7599.93,-17163.6 -2083.67,-3900.64 -4020.37,-7663.79 -5722.03,-11761.52 -950.34,-2288.44 -1835.58,-4626.43 -2700.88,-7026.02 -2992.34,-8298.07 5937.93,-12343.71 9924.27,-5017.72 1152.2,2117.52 2330.86,4143.38 3513.04,6175.31 2145.16,3687.1 4153.04,7463.33 6331.06,11119.96 1008.23,1692.68 2100.41,3427.03 3251.96,5071 1413.08,-3312.19 2855.39,-6192.81 6475.06,-6975.1 4041.49,-873.45 6610.61,1662.51 8880.65,4920.14 1754.8,-1645.81 3848.4,-2051.72 6185.38,-1776.75 2788.72,328.12 5070.55,2682.05 6967.3,5451.87 2878.99,-1278.71 7407.82,241.25 9146.3,2793.46 2312.35,3394.69 4991.05,8235.28 6406.41,12076.87 1201.3,3260.59 1598.8,9292.38 1971.52,14948.37 638.92,9695.46 413.76,23711.64 9037.61,30022.57 560.09,410.54 -64.13,1262.17 -624.24,851.62 -9007.73,-6591.84 -8800.27,-20680.66 -9467.57,-30808.05 -367.69,-5579.77 -759.83,-11530.28 -1909.5,-14650.71 -1385.88,-3761.62 -4022.14,-8521.07 -6286.53,-11845.35 -790.42,-1160.38 -2304.5,-2077.62 -3921.25,-2516.96 -1318.91,-358.4 -2688.19,-394.2 -3761.02,22.96 1438.92,2249.85 2575.11,4642.87 3967.21,6894.99 363.87,589.26 -533.22,1143.23 -897.1,553.96 -2439.35,-3946.38 -5866.71,-12171.09 -10749.02,-12745.54 -2094.25,-246.39 -3922.04,94.68 -5464.43,1613.43 1446.68,2186.53 2794.33,4626.52 4550.9,6557.43 467.07,513.24 -314.28,1224.29 -781.34,711.06 -3629.75,-3990.02 -6836.11,-13380.06 -13028.04,-12041.85 -3305.13,714.3 -4590.58,3656.55 -5979.22,6946.39 1407.77,1933.71 3109.45,4175.14 5163.67,5439.58 591.99,363.87 38.04,1265.12 -553.96,901.24 -2288.7,-1408.76 -4146.98,-3897.93 -5704.7,-6054.83 -1351.14,-1870.85 -2622.72,-3874.95 -3781.41,-5820.24 -2181.01,-3661.64 -4191.54,-7440.74 -6339.34,-11132.36 -1173.71,-2017.38 -2343.94,-4028.74 -3525.44,-6200.11 -3374.16,-6200.96 -10552.53,-2903.81 -8006.05,4157.82 849.11,2354.7 1726.35,4669.56 2684.34,6976.42 1687.83,4064.38 3609.62,7801.25 5676.57,11670.56 3013.38,5640.97 6228.19,11659.04 7695.01,17399.26 944.7,3697 698.27,6895.46 -420.76,10515.04 -484.37,1566.63 -765.44,2261.78 -1951.48,3494.71 -124.81,129.75 -245.82,255.54 -373.73,399.4 -461.65,518.67 -1251.26,-184.14 -789.62,-702.8 582.13,-654.7 418.97,-279.41 -123.48,-876.24 -222.18,-244.46 -435.98,-564.25 -641.73,-952.98 -1335.3,-2522.7 -4196.81,-5537.87 -6455.21,-7293.73 -17.9,189.92 -38.24,381.78 -60.99,575.76 -78.83,690.6 -1128.9,570.74 -1050.06,-119.88 523.61,-4465.48 -323.04,-7455.13 -3579.57,-10646.36 -3921.57,-3842.86 -9967.35,-3352.89 -7384.45,3134.98 1222.35,3070.39 1517.49,5114.7 1556.08,8414.42 53.19,4547.75 624.76,5322.12 3176.03,8778.53 3313.32,4488.77 6482.86,8934.46 9917.41,13362.06 9227.55,11895.45 25912.53,20911.96 30842.68,30123.49z"/></g></svg>